<svg xmlns="http://www.w3.org/2000/svg" viewBox="0 0 256 256" role="img" aria-label="Air We Go app icon">
  <title>Air We Go — App Icon</title>
  <defs>
    <linearGradient id="i-bg" x1="0" y1="0" x2="1" y2="1">
      <stop offset="0" stop-color="#EAF6FF"/><stop offset="1" stop-color="#EAF7E4"/>
    </linearGradient>
    <linearGradient id="i-globe" x1="0" y1="0" x2="0" y2="1">
      <stop offset="0" stop-color="#7BC143"/>
      <stop offset="0.42" stop-color="#3E9E4F"/>
      <stop offset="0.62" stop-color="#1C7FB8"/>
      <stop offset="1" stop-color="#0B4DA2"/>
    </linearGradient>
    <linearGradient id="i-wave" x1="0" y1="0" x2="1" y2="0.2">
      <stop offset="0" stop-color="#1C7FB8"/><stop offset="1" stop-color="#0B4DA2"/>
    </linearGradient>
    <linearGradient id="i-pin" x1="0" y1="0" x2="0" y2="1">
      <stop offset="0" stop-color="#1C7FB8"/><stop offset="1" stop-color="#0B4DA2"/>
    </linearGradient>
    <linearGradient id="i-leaf" x1="0" y1="0" x2="1" y2="1">
      <stop offset="0" stop-color="#8BD24A"/><stop offset="1" stop-color="#3E9E4F"/>
    </linearGradient>
    <clipPath id="i-globe-clip"><circle cx="140" cy="140" r="78"/></clipPath>
  </defs>

  <rect x="0" y="0" width="256" height="256" rx="56" fill="url(#i-bg)"/>

  <circle cx="140" cy="140" r="78" fill="url(#i-globe)"/>
  <g clip-path="url(#i-globe-clip)" fill="none" stroke="#ffffff" stroke-opacity="0.28" stroke-width="1.6">
    <line x1="62" y1="140" x2="218" y2="140"/>
    <path d="M62 114 Q140 102 218 114"/>
    <path d="M62 166 Q140 178 218 166"/>
    <ellipse cx="140" cy="140" rx="26" ry="78"/>
    <ellipse cx="140" cy="140" rx="52" ry="78"/>
  </g>
  <g clip-path="url(#i-globe-clip)" fill="#4FB151" fill-opacity="0.92">
    <path d="M92 88 q20 3 27 17 q5 12 -4 22 q-12 10 -26 5 q-13 -5 -15 -20 q-2 -17 18 -24 z"/>
    <path d="M170 98 q17 -3 27 9 q7 10 -1 20 q-11 12 -24 6 q-11 -5 -11 -18 q0 -14 9 -17 z"/>
  </g>
  <g clip-path="url(#i-globe-clip)" fill="#1FA7C4" fill-opacity="0.9">
    <path d="M132 166 q14 -2 17 11 q5 15 -3 29 q-9 14 -17 7 q-7 -6 -6 -24 q1 -19 9 -23 z"/>
  </g>
  <circle cx="140" cy="140" r="78" fill="none" stroke="#0B4DA2" stroke-opacity="0.35" stroke-width="1.8"/>

  <g fill="none" stroke="url(#i-wave)" stroke-linecap="round">
    <path d="M92 118 Q170 96 246 116" stroke-width="10"/>
    <path d="M92 140 Q176 118 252 138" stroke-width="10"/>
    <path d="M102 162 Q182 140 246 162" stroke-width="10"/>
  </g>
  <g fill="none" stroke="#ffffff" stroke-linecap="round" stroke-opacity="0.9">
    <path d="M92 118 Q170 96 246 116" stroke-width="1.8"/>
    <path d="M92 140 Q176 118 252 138" stroke-width="1.8"/>
    <path d="M102 162 Q182 140 246 162" stroke-width="1.8"/>
  </g>

  <g>
    <path d="M92 50 a28 28 0 0 1 28 28 c0 22 -28 50 -28 50 c0 0 -28 -28 -28 -50 a28 28 0 0 1 28 -28 z" fill="url(#i-pin)"/>
    <path d="M92 58 a20 20 0 0 1 20 20 c0 15 -20 38 -20 38 c0 0 -20 -23 -20 -38 a20 20 0 0 1 20 -20 z" fill="#ffffff"/>
    <path d="M83 82 q15 -15 24 -7 q2 12 -8 17 q-11 6 -17 -1 q0 -5 1 -9 z" fill="url(#i-leaf)"/>
  </g>
</svg>
