<svg xmlns="http://www.w3.org/2000/svg" viewBox="0 0 760 220" role="img" aria-label="Air We Go horizontal logo for dark backgrounds">
  <title>Air We Go — Horizontal Lockup for Dark Backgrounds</title>
  <defs>
    <linearGradient id="hd-globe" x1="0" y1="0" x2="0" y2="1">
      <stop offset="0" stop-color="#7BC143"/>
      <stop offset="0.42" stop-color="#3E9E4F"/>
      <stop offset="0.62" stop-color="#1C7FB8"/>
      <stop offset="1" stop-color="#0B4DA2"/>
    </linearGradient>
    <linearGradient id="hd-wave" x1="0" y1="0" x2="1" y2="0.2">
      <stop offset="0" stop-color="#1C7FB8"/><stop offset="1" stop-color="#0B4DA2"/>
    </linearGradient>
    <linearGradient id="hd-pin" x1="0" y1="0" x2="0" y2="1">
      <stop offset="0" stop-color="#1C7FB8"/><stop offset="1" stop-color="#0B4DA2"/>
    </linearGradient>
    <linearGradient id="hd-leaf" x1="0" y1="0" x2="1" y2="1">
      <stop offset="0" stop-color="#8BD24A"/><stop offset="1" stop-color="#3E9E4F"/>
    </linearGradient>
    <clipPath id="hd-globe-clip"><circle cx="110" cy="108" r="72"/></clipPath>
  </defs>

  <g>
    <circle cx="110" cy="108" r="72" fill="url(#hd-globe)"/>
    <g clip-path="url(#hd-globe-clip)" fill="none" stroke="#ffffff" stroke-opacity="0.28" stroke-width="1.4">
      <line x1="38" y1="108" x2="182" y2="108"/>
      <path d="M38 84 Q110 74 182 84"/>
      <path d="M38 132 Q110 142 182 132"/>
      <ellipse cx="110" cy="108" rx="24" ry="72"/>
      <ellipse cx="110" cy="108" rx="48" ry="72"/>
    </g>
    <g clip-path="url(#hd-globe-clip)" fill="#4FB151" fill-opacity="0.92">
      <path d="M64 58 q19 3 25 16 q5 11 -4 20 q-11 10 -24 5 q-12 -5 -14 -19 q-2 -16 17 -22 z"/>
      <path d="M136 66 q16 -3 25 8 q7 10 -1 19 q-10 11 -22 6 q-11 -5 -11 -17 q0 -13 9 -16 z"/>
    </g>
    <g clip-path="url(#hd-globe-clip)" fill="#1FA7C4" fill-opacity="0.9">
      <path d="M104 130 q13 -2 16 10 q5 14 -3 27 q-8 13 -16 7 q-7 -5 -6 -22 q1 -18 9 -22 z"/>
    </g>
    <circle cx="110" cy="108" r="72" fill="none" stroke="#0B4DA2" stroke-opacity="0.35" stroke-width="1.6"/>

    <g fill="none" stroke="url(#hd-wave)" stroke-linecap="round">
      <path d="M64 88 Q136 70 208 86" stroke-width="9"/>
      <path d="M64 108 Q142 90 216 106" stroke-width="9"/>
      <path d="M74 128 Q146 110 208 128" stroke-width="9"/>
    </g>
    <g fill="none" stroke="#ffffff" stroke-linecap="round" stroke-opacity="0.9">
      <path d="M64 88 Q136 70 208 86" stroke-width="1.6"/>
      <path d="M64 108 Q142 90 216 106" stroke-width="1.6"/>
      <path d="M74 128 Q146 110 208 128" stroke-width="1.6"/>
    </g>

    <g>
      <path d="M64 26 a26 26 0 0 1 26 26 c0 20 -26 46 -26 46 c0 0 -26 -26 -26 -46 a26 26 0 0 1 26 -26 z" fill="url(#hd-pin)"/>
      <path d="M64 33 a19 19 0 0 1 19 19 c0 14 -19 35 -19 35 c0 0 -19 -21 -19 -35 a19 19 0 0 1 19 -19 z" fill="#ffffff"/>
      <path d="M56 55 q14 -14 22 -6 q2 11 -7 16 q-10 6 -16 -1 q0 -5 1 -9 z" fill="url(#hd-leaf)"/>
    </g>
  </g>

  <g fill="#FFFFFF" font-family="'Poppins','Montserrat','Segoe UI',Arial,sans-serif" font-weight="800" font-size="92" letter-spacing="-1">
    <text x="238" y="140">Air</text>
    <text x="392" y="140">We</text>
    <text x="558" y="140">Go</text>
  </g>
</svg>
